<svg xmlns="http://www.w3.org/2000/svg" height="48" viewBox="0 -960 960 960" width="48"><path d="M483-172.5q-128.5 0-218-89.5t-89.5-218q0-85.5 43.25-161T351.5-761.5q15-5.5 25-5t16.75 6.25q5.25 6.25 7.5 16T400-723q-3 16-3.75 31.256-.75 15.255-.75 31.744 0 111.458 78.021 189.479Q551.542-392.5 663-392.5q24.935 0 43.606-3.279 18.67-3.28 32.394-1.221 12.5-.5 19.25 3t11.092 7.5q2.658 5 2.408 12.662-.25 7.662-5.25 19.338-37.5 81-112.203 131.5Q579.593-172.5 483-172.5Zm.141-22q93.359 0 167.109-54.25Q724-303 752-384.5q-21.333 6.955-43.667 10.477Q686-370.5 663.032-370.5q-120.623 0-205.078-84.454Q373.5-539.409 373.5-660.032q0-21.968 3.273-43.801Q380.045-725.667 388.5-750 304-720 250.75-645.682q-53.25 74.317-53.25 166.031 0 118.887 83.295 202.019T483.141-194.5ZM475-472Z"/></svg>