<svg xmlns="http://www.w3.org/2000/svg" height="48" viewBox="0 -960 960 960" width="48"><path d="M234-194h165v-210q0-11.975 7.763-19.737 7.762-7.763 19.737-7.763h108q10.825 0 18.662 7.763Q561-415.975 561-404v210h165v-353.667q0-8-3.5-14.5t-9.5-11.5L499-735q-8-6-19-6t-19 6L247-573.667q-6 5-9.5 11.5t-3.5 14.5V-194Zm-22 0v-353q0-13.688 5.031-24.5T234-590l214-163q13.76-11 31.88-11Q498-764 512-753l214 163q11.938 7.688 16.969 18.5Q748-560.688 748-547v353q0 8.525-6.737 15.262Q734.525-172 726-172H566.5q-11.975 0-19.737-7.762Q539-187.525 539-199.5v-210H421v210q0 11.975-7.805 19.738Q405.389-172 394.612-172H233.558q-8.02 0-14.789-6.738Q212-185.475 212-194Zm268-275Z"/></svg>