<svg xmlns="http://www.w3.org/2000/svg" height="48" viewBox="0 -960 960 960" width="48"><path d="M479.735-354.5q52.265 0 89.515-36.485 37.25-36.486 37.25-88.75 0-52.265-36.838-89.515t-89.25-37.25q-52.412 0-89.162 36.838-36.75 36.838-36.75 89.25t36.485 89.162q36.486 36.75 88.75 36.75Zm.352 22q-62.087 0-104.837-42.81T332.5-480.06q0-61.94 42.81-105.19t104.75-43.25q61.94 0 105.19 43.163 43.25 43.164 43.25 105.25 0 62.087-43.163 104.837-43.164 42.75-105.25 42.75ZM77-469.5q-5.175 0-7.838-2.728-2.662-2.728-2.662-8t2.662-8.272q2.663-3 7.838-3h112q5.175 0 8.337 3.228 3.163 3.228 3.163 8.5T197.337-472q-3.162 2.5-8.337 2.5H77Zm694 0q-5.175 0-7.838-2.728-2.662-2.728-2.662-8t2.662-8.272q2.663-3 7.838-3h112q5.175 0 8.338 3.228 3.162 3.228 3.162 8.5T891.338-472q-3.163 2.5-8.338 2.5H771Zm-291.228-291q-5.272 0-7.772-2.662-2.5-2.663-2.5-7.838v-112q0-5.175 2.728-8.338 2.728-3.162 8-3.162t8.272 3.162q3 3.163 3 8.338v112q0 5.175-3.228 7.838-3.228 2.662-8.5 2.662Zm0 694q-5.272 0-7.772-2.662-2.5-2.663-2.5-7.838v-112q0-5.175 2.728-8.337 2.728-3.163 8-3.163t8.272 3.163q3 3.162 3 8.337v112q0 5.175-3.228 7.838-3.228 2.662-8.5 2.662ZM267.5-679l-66-64q-3.5-2.5-3.296-7.43.204-4.929 3.236-8.673 3.201-3.397 7.63-3.397 4.43 0 7.93 3l65 65q3.5 4.035 3.5 8.414 0 4.38-3 7.32-3.5 3.266-7.75 3.516T267.5-679ZM743-201.5l-65-65q-4-3.133-3.75-7.442.25-4.308 4.25-8.558 1.5-3 6.233-2.5 4.734.5 8.767 4l66 64q2.5 2.5 2.296 7.43-.204 4.929-3.236 8.673-3.201 3.397-7.63 3.397-4.43 0-7.93-4Zm-64.647-476q-3.853-3-3.353-7.483.5-4.484 4-8.517l64-66q2.5-2.5 7.43-2.296 4.929.204 8.673 3.236 3.397 3.201 3.397 7.63 0 4.43-3 7.93l-65 65q-3.853 3.5-8.233 3.5-4.379 0-7.914-3ZM200.897-200.662q-3.397-3.988-3.397-8.413 0-4.425 4-7.925l65-65q3.2-3.5 7.6-3.5 4.4 0 8.443 3.5 2.457 2 1.707 6.75-.75 4.75-3.25 7.75l-64 66q-3.5 4-7.93 4.296-4.429.296-8.173-3.458ZM480-480Z"/></svg>